<?xml version="1.0" encoding="UTF-8"?><svg xmlns="http://www.w3.org/2000/svg" viewBox="0 0 52.15 7.29"><defs><style>.d{fill:#4e4e4e;}</style></defs><g id="a"/><g id="b"><g id="c"><g><path class="d" d="M25.95,4.15l-12.27-.23c-2.04-.02-4.11-.13-6.12-.07-2.01,.15-4.04,.68-5.77,1.76-.01,0-.03,0-.04,0,0-.01,0-.03,0-.04,1.7-1.16,3.73-1.77,5.78-2.01,2.07-.14,4.1-.11,6.15-.17l12.26-.23c.28,0,.5,.21,.51,.49,0,.28-.21,.5-.49,.51,0,0-.01,0-.02,0Z"/><path class="d" d="M.08,6.02c-.13-.16-.1-.4,.06-.53,.07-.05,.14-.08,.22-.08l1.28,.15s.01-.06,.03-.08l-.95-.71-.08-.06c-.1-.1-.14-.26-.08-.41,.08-.19,.29-.29,.49-.21,.08,.03,.13,.08,.18,.14h0l.05,.11h0v.02l.46,1.06s.06-.02,.09-.01l.15-1.27s.01-.03,.02-.05c.08-.19,.3-.29,.49-.21,.19,.08,.29,.29,.21,.49,0,.02-.01,.03-.02,.05h0l-.06,.09h-.01l-.69,.94s.02,.02,.03,.03c0,.01,.01,.02,.02,.04l1.08-.47,.09-.04s.03,0,.05-.01c.21-.03,.39,.12,.43,.32,.03,.2-.11,.4-.32,.42-.02,0-.03,0-.05,0h-.05l-1.22-.15s-.01,.06-.03,.08l.94,.71,.08,.06h0s.02,.02,.03,.04c.13,.16,.1,.4-.06,.53-.16,.13-.4,.1-.53-.06-.01-.01-.02-.03-.03-.04h0l-.03-.07v-.02l-.47-1.08s-.05,.02-.08,.01l-.14,1.19v.07c-.04,.15-.16,.27-.32,.29-.2,.03-.4-.11-.42-.32-.01-.09,0-.17,.04-.24h0l.06-.08,.71-.94s-.02-.02-.03-.03c0-.01-.01-.02-.02-.04l-1.09,.46h0l-.07,.04c-.14,.04-.3,0-.4-.13Z"/></g><circle class="d" cx="26.2" cy="6.47" r=".76"/><g><path class="d" d="M26.2,3.15l12.27,.23c2.04,.02,4.11,.13,6.12,.07,2.01-.15,4.04-.68,5.77-1.76,.01,0,.03,0,.04,0,0,.01,0,.03,0,.04-1.7,1.16-3.73,1.77-5.78,2.01-2.07,.14-4.1,.11-6.15,.17l-12.26,.23c-.28,0-.5-.21-.51-.49,0-.28,.21-.5,.49-.51,0,0,.01,0,.02,0Z"/><path class="d" d="M52.07,1.28c.13,.16,.1,.4-.06,.53-.07,.05-.14,.08-.22,.08l-1.28-.15s-.01,.06-.03,.08l.95,.71,.08,.06c.1,.1,.14,.26,.08,.41-.08,.19-.29,.29-.49,.21-.08-.03-.13-.08-.18-.14h0l-.05-.11h0v-.02l-.46-1.06s-.06,.02-.09,.01l-.15,1.27s-.01,.03-.02,.05c-.08,.19-.3,.29-.49,.21-.19-.08-.29-.29-.21-.49,0-.02,.01-.03,.02-.05h0l.06-.09h.01l.69-.94s-.02-.02-.03-.03c0-.01-.01-.02-.02-.04l-1.08,.47-.09,.04s-.03,0-.05,.01c-.21,.03-.39-.12-.43-.32s.11-.4,.32-.42c.02,0,.03,0,.05,0h.05l1.22,.15s.01-.06,.03-.08l-.94-.71-.08-.06h0s-.02-.02-.03-.04c-.13-.16-.1-.4,.06-.53,.16-.13,.4-.1,.53,.06,.01,.01,.02,.03,.03,.04h0l.03,.07v.02l.47,1.08s.05-.02,.08-.01l.14-1.19v-.07c.04-.15,.16-.27,.32-.29,.2-.03,.4,.11,.42,.32,.01,.09,0,.17-.04,.24h0l-.06,.08-.71,.94s.02,.02,.03,.03c0,.01,.01,.02,.02,.04l1.09-.46h0l.07-.04c.14-.04,.3,0,.4,.13Z"/></g></g></g></svg>