<svg xmlns="http://www.w3.org/2000/svg" viewBox="0 0 53.24 8.95"><defs><style>.cls-1{fill:#4e4e4e;}</style></defs><g id="Layer_3" data-name="Layer 3"><path class="cls-1" d="M0,9A2.41,2.41,0,0,0,.17,7.52.86.86,0,0,1,.31,6.9c.31-.17.72.23,1,.37s.81.73.42,1.05C1.08,8.61.61,8.43,0,9a2.1,2.1,0,0,1,1.28-.68c.15-.06.44-.09.28-.3a2.36,2.36,0,0,0-1-.87c-.1-.15-.13.21-.15.42A2.15,2.15,0,0,1,0,9Z"/><path class="cls-1" d="M10.07,8c1.2-.62,2.1-.33,3.33-.35.22,0,.44-.05.38-.22a3.36,3.36,0,0,0-1.33-2.13c-.32-.28-.59.27-.77.61A4.21,4.21,0,0,1,10.07,8a6.78,6.78,0,0,0,.89-1c.41-.52.44-1.27.89-1.8a.52.52,0,0,1,.72-.12A3.36,3.36,0,0,1,14,7.46c0,.61-.89.44-1.29.43A4.69,4.69,0,0,0,10.07,8Z"/><path class="cls-1" d="M26.61,5a38.4,38.4,0,0,1-13.14.14l-3.26-.36a11.8,11.8,0,0,0-9.1,2.67,11.94,11.94,0,0,1,9.13-3c1.94.13,4.64.31,6.55.51,3.23.31,6.48-.41,9.67-.91a.5.5,0,1,1,.15,1Z"/><path class="cls-1" d="M5,2.25a3.37,3.37,0,0,1,1.4,1.52c.12.15.4.67.57.58a2.4,2.4,0,0,0,.76-1.71c0-.27-.41-.23-.71-.2a3.27,3.27,0,0,1-2-.19,3.55,3.55,0,0,0,2,0,1.14,1.14,0,0,1,.83.06c.32.39,0,.94-.05,1.35s-.42.86-.88.94c-.33-.11-.48-.46-.65-.74A3.71,3.71,0,0,0,5,2.25Z"/><path class="cls-1" d="M10,4.66a8.82,8.82,0,0,1-2.32-1,8.68,8.68,0,0,0,2.38.75L10,4.66Z"/><path class="cls-1" d="M15.84,5.43a8.45,8.45,0,0,0-2.38.75,8.5,8.5,0,0,1,2.32-1l.06.24Z"/></g><g id="Layer_4" data-name="Layer 4"><path class="cls-1" d="M53.24,0a2.42,2.42,0,0,0-.17,1.43.91.91,0,0,1-.14.62c-.31.17-.72-.23-1-.37s-.81-.73-.42-1c.62-.29,1.08-.1,1.7-.63A2.1,2.1,0,0,1,52,.68c-.15.06-.44.09-.28.3a2.38,2.38,0,0,0,1,.87c.1.15.14-.21.16-.42A2.15,2.15,0,0,1,53.24,0Z"/><path class="cls-1" d="M43.17.91c-1.2.62-2.1.33-3.33.35-.22,0-.44.05-.39.22a3.41,3.41,0,0,0,1.34,2.13c.31.28.59-.27.77-.61A4.15,4.15,0,0,1,43.17.91a5.89,5.89,0,0,0-.89,1c-.42.51-.44,1.26-.89,1.79a.53.53,0,0,1-.73.12,3.38,3.38,0,0,1-1.43-2.31c0-.61.88-.44,1.29-.43A4.7,4.7,0,0,0,43.17.91Z"/><path class="cls-1" d="M26.62,4a38.71,38.71,0,0,1,13.15-.14L43,4.19a11.78,11.78,0,0,0,9.1-2.67,12,12,0,0,1-9.13,3c-2-.13-4.64-.31-6.55-.51-3.23-.31-6.48.41-9.67.91a.5.5,0,0,1-.16-1Z"/><path class="cls-1" d="M48.2,6.7a3.34,3.34,0,0,1-1.41-1.52c-.12-.15-.39-.67-.56-.58a2.37,2.37,0,0,0-.76,1.72c0,.26.41.22.71.19a3.28,3.28,0,0,1,2,.19,3.55,3.55,0,0,0-2,0,1.13,1.13,0,0,1-.83-.06c-.33-.39,0-.94,0-1.35s.43-.86.88-.94c.34.11.49.46.66.74A3.71,3.71,0,0,0,48.2,6.7Z"/><path class="cls-1" d="M43.2,4.29a8.82,8.82,0,0,1,2.32,1,8.33,8.33,0,0,0-2.38-.74l.06-.25Z"/><path class="cls-1" d="M37.4,3.52a8.29,8.29,0,0,0,2.37-.75,8.25,8.25,0,0,1-2.32,1l-.05-.24Z"/></g></svg>